# xmcd
#
# Track frame offsets: 
#        150
#        23520
#        42334
#        63626
#        85946
#        104368
#        125210
#        142530
#        163952
#        181008
#        203947
#
# Disc length: 2969 seconds
#
# Revision: 0
# Processed by: cddbd v1.5.2PL0 Copyright (c) Steve Scherf et al.
# Submitted via: ExactAudioCopy v1.1
#
DISCID=930b970b
DTITLE=李玟 - 往日情
DYEAR=1996
DGENRE=Blues
TTITLE0=愛我久一點
TTITLE1=往日情
TTITLE2=她在睡前哭泣
TTITLE3=愛情的好處
TTITLE4=心裡問
TTITLE5=無處躲雨
TTITLE6=依賴
TTITLE7=Need Some Lovin' Tonite
TTITLE8=愛到底
TTITLE9=童話最後一章
TTITLE10=往日情(KARAOKE版)
EXTD=
EXTT0=
EXTT1=
EXTT2=
EXTT3=
EXTT4=
EXTT5=
EXTT6=
EXTT7=
EXTT8=
EXTT9=
EXTT10=
PLAYORDER=
